#!OML:ASF G:\JayActor3\Patient Classification 1\Patient 1\Session 6\male.ASF
:FULLY-SPECIFIED
:DEGREES
1129
root 9.07397 16.2376 -2.81615 5.4447 -48.7067 -10.062
lowerback -0.901475 -3.43176 2.40355
upperback 0.521052 -4.66185 2.81422
thorax 1.08277 -2.33434 1.45624
lowerneck -0.0169297 -5.7157 -0.338295
upperneck 15.5743 -6.86542 -8.77905
head 4.35036 -3.98665 -2.89689
rclavicle 3.88748e-014 -5.86415e-015
rhumerus -26.1723 10.1239 -86.0261
rradius 110.676
rwrist -86.3179
rhand -32.7136 -20.0598
rfingers 7.12502
rthumb -5.93774 -49.9566
lclavicle 3.88748e-014 -5.86415e-015
lhumerus -22.3825 -18.0725 95.5768
lradius 102.604
lwrist 65.1447
lhand -42.4594 -9.30264
lfingers 7.12502
lthumb -15.3376 20.1086
rfemur -16.0009 8.48863 27.8402
rtibia 38.8529
rfoot -18.6485 -0.999076
rtoes 8.79539
lfemur -1.41794 5.58124 -21.083
ltibia 25.9342
lfoot -37.4077 30.412
ltoes 11.9007
1130
root 9.07649 16.238 -2.81812 5.45899 -48.722 -10.0604
lowerback -0.892471 -3.45309 2.38173
upperback 0.530364 -4.69004 2.8157
thorax 1.08941 -2.34859 1.46953
lowerneck -0.0532761 -5.71925 -0.360994
upperneck 15.6881 -6.86689 -8.7585
head 4.39299 -3.99197 -2.89207
rclavicle -1.56046e-014 -1.63997e-014
rhumerus -26.3761 10.0169 -86.059
rradius 110.576
rwrist -86.3763
rhand -32.8004 -20.0969
rfingers 7.12502
rthumb -6.02147 -49.9913
lclavicle -1.56046e-014 -1.63997e-014
lhumerus -22.4951 -18.2706 95.654
lradius 102.412
lwrist 65.2549
lhand -42.4418 -9.3058
lfingers 7.12502
lthumb -15.3208 20.1067
rfemur -16.0362 8.50618 27.8328
rtibia 38.8575
rfoot -18.6306 -0.997525
rtoes 8.8322
lfemur -1.45012 5.55444 -21.099
ltibia 25.9387
lfoot -37.4368 30.4434
ltoes 11.931
1131
root 9.07908 16.2384 -2.82 5.47582 -48.7383 -10.0624
lowerback -0.885179 -3.47349 2.36331
upperback 0.540528 -4.71718 2.81735
thorax 1.09764 -2.36226 1.481
lowerneck -0.0911894 -5.72409 -0.386029
upperneck 15.807 -6.87027 -8.73437
head 4.43763 -3.99833 -2.88607
rclavicle -1.68656e-015 5.26779e-015
rhumerus -26.5809 9.9151 -86.0883
rradius 110.474
rwrist -86.4504
rhand -32.8875 -20.1385
rfingers 7.12502
rthumb -6.10564 -50.0305
lclavicle -1.68656e-015 5.26779e-015
lhumerus -22.6089 -18.4794 95.7329
lradius 102.212
lwrist 65.3515
lhand -42.4138 -9.3317
lfingers 7.12502
lthumb -15.2938 20.0828
rfemur -16.0698 8.52166 27.8273
rtibia 38.8596
rfoot -18.6114 -0.995471
rtoes 8.87102
lfemur -1.48234 5.52238 -21.1143
ltibia 25.9445
lfoot -37.4736 30.4759
ltoes 11.9713
1132
root 9.08171 16.2389 -2.82177 5.4945 -48.7554 -10.067
lowerback -0.880161 -3.49326 2.3477
upperback 0.551601 -4.74365 2.81901
thorax 1.10786 -2.37558 1.49075
lowerneck -0.131294 -5.72987 -0.414476
upperneck 15.9323 -6.87514 -8.70499
head 4.48497 -4.00554 -2.87829
rclavicle -1.03958e-014 3.37934e-015
rhumerus -26.7867 9.81839 -86.1149
rradius 110.371
rwrist -86.5414
rhand -32.9756 -20.177
rfingers 7.12502
rthumb -6.1907 -50.0666
lclavicle -1.03958e-014 3.37934e-015
lhumerus -22.7246 -18.6986 95.8123
lradius 102.006
lwrist 65.4373
lhand -42.371 -9.35363
lfingers 7.12502
lthumb -15.2525 20.064
rfemur -16.1016 8.53535 27.8233
rtibia 38.8596
rfoot -18.5917 -0.993449
rtoes 8.90767
lfemur -1.51456 5.49009 -21.1282
ltibia 25.9513
lfoot -37.5134 30.5073
ltoes 12.0167
1133
root 9.08436 16.2393 -2.8234 5.51403 -48.773 -10.073
lowerback -0.877723 -3.51285 2.33369
upperback 0.563608 -4.77006 2.82065
thorax 1.12036 -2.38884 1.49938
lowerneck -0.174291 -5.73634 -0.446889
upperneck 16.0652 -6.88124 -8.66967
head 4.53553 -4.0135 -2.86847
rclavicle -8.30858e-014 -6.75868e-015
rhumerus -26.9938 9.72728 -86.1395
rradius 110.267
rwrist -86.6485
rhand -33.0649 -20.201
rfingers 7.12502
rthumb -6.27688 -50.088
lclavicle -8.30858e-014 -6.75868e-015
lhumerus -22.8426 -18.9264 95.8907
lradius 101.797
lwrist 65.5168
lhand -42.3108 -9.33862
lfingers 7.12502
lthumb -15.1946 20.0835
rfemur -16.1315 8.54793 27.8197
rtibia 38.8578
rfoot -18.5728 -0.991646
rtoes 8.9405
lfemur -1.54656 5.46133 -21.1407
ltibia 25.9587
lfoot -37.5522 30.5357
ltoes 12.0639
1134
root 9.087 16.2397 -2.82491 5.53356 -48.7908 -10.0791
lowerback -0.877825 -3.53277 2.32008
upperback 0.576494 -4.79706 2.82242
thorax 1.1352 -2.40238 1.50769
lowerneck -0.220617 -5.74331 -0.483564
upperneck 16.2063 -6.88824 -8.62838
head 4.58959 -4.0221 -2.85658
rclavicle 9.37208e-014 -8.94531e-015
rhumerus -27.202 9.64267 -86.1625
rradius 110.162
rwrist -86.7676
rhand -33.1542 -20.1988
rfingers 7.12502
rthumb -6.36308 -50.0832
lclavicle 9.37208e-014 -8.94531e-015
lhumerus -22.9628 -19.1603 95.967
lradius 101.587
lwrist 65.594
lhand -42.2389 -9.28143
lfingers 7.12502
lthumb -15.1253 20.1459
rfemur -16.1597 8.56039 27.8159
rtibia 38.8548
rfoot -18.5552 -0.99056
rtoes 8.967
lfemur -1.57799 5.43961 -21.1516
ltibia 25.9661
lfoot -37.5859 30.5602
ltoes 12.1076
1135
root 9.08965 16.2401 -2.82629 5.55237 -48.8088 -10.0846
lowerback -0.880107 -3.55348 2.30576
upperback 0.590118 -4.82524 2.82449
thorax 1.15212 -2.4165 1.51649
lowerneck -0.269923 -5.7506 -0.523685
upperneck 16.3548 -6.8959 -8.58239
head 4.64682 -4.03119 -2.8431
rclavicle -2.06581e-014 -4.52235e-014
rhumerus -27.4115 9.56513 -86.1846
rradius 110.056
rwrist -86.892
rhand -33.2407 -20.1654
rfingers 7.12502
rthumb -6.44655 -50.0473
lclavicle -2.06581e-014 -4.52235e-014
lhumerus -23.0855 -19.3973 96.0405
lradius 101.38
lwrist 65.673
lhand -42.1609 -9.18295
lfingers 7.12502
lthumb -15.0502 20.25
rfemur -16.1865 8.57355 27.8113
rtibia 38.8514
rfoot -18.5389 -0.989918
rtoes 8.98857
lfemur -1.60838 5.42667 -21.1613
ltibia 25.9729
lfoot -37.6125 30.5795
ltoes 12.1458
1136
root 9.09231 16.2405 -2.82754 5.57024 -48.8273 -10.0891
lowerback -0.884116 -3.57521 2.29005
upperback 0.604319 -4.85487 2.82707
thorax 1.17079 -2.43136 1.52639
lowerneck -0.321901 -5.75814 -0.566209
upperneck 16.5097 -6.90403 -8.53329
head 4.70672 -4.04071 -2.82864
rclavicle -6.58474e-014 3.15074e-014
rhumerus -27.6224 9.49434 -86.2063
rradius 109.949
rwrist -87.013
rhand -33.3204 -20.1062
rfingers 7.12502
rthumb -6.5235 -49.9857
lclavicle -6.58474e-014 3.15074e-014
lhumerus -23.2096 -19.635 96.1118
lradius 101.176
lwrist 65.7552
lhand -42.0876 -9.0595
lfingers 7.12502
lthumb -14.9795 20.3787
rfemur -16.2126 8.58798 27.8057
rtibia 38.8481
rfoot -18.5236 -0.989844
rtoes 9.00394
lfemur -1.63762 5.42447 -21.1694
ltibia 25.9786
lfoot -37.6294 30.5932
ltoes 12.1742
1137
root 9.09499 16.2408 -2.82869 5.58762 -48.8468 -10.093
lowerback -0.88923 -3.59791 2.27305
upperback 0.618842 -4.88586 2.83025
thorax 1.19061 -2.44692 1.53749
lowerneck -0.375937 -5.76588 -0.609843
upperneck 16.6694 -6.91252 -8.48273
head 4.76865 -4.05053 -2.81383
rclavicle 5.72702e-014 -1.51076e-014
rhumerus -27.835 9.42925 -86.228
rradius 109.843
rwrist -87.1211
rhand -33.3894 -20.0377
rfingers 7.12502
rthumb -6.59013 -49.9151
lclavicle 5.72702e-014 -1.51076e-014
lhumerus -23.3335 -19.8713 96.1823
lradius 100.974
lwrist 65.841
lhand -42.0263 -8.92872
lfingers 7.12502
lthumb -14.9205 20.5139
rfemur -16.2388 8.60375 27.7993
rtibia 38.8456
rfoot -18.5081 -0.989822
rtoes 9.01445
lfemur -1.66568 5.43357 -21.1758
ltibia 25.9829
lfoot -37.6357 30.6017
ltoes 12.1914
1138
root 9.09773 16.2412 -2.82975 5.60477 -48.8679 -10.0965
lowerback -0.894815 -3.62135 2.25492
upperback 0.63341 -4.91783 2.83382
thorax 1.21091 -2.46299 1.54954
lowerneck -0.431624 -5.77378 -0.65334
upperneck 16.8328 -6.92127 -8.4319
head 4.83205 -4.06058 -2.79918
rclavicle -9.61574e-014 -1.09332e-015
rhumerus -28.0494 9.36803 -86.2499
rradius 109.736
rwrist -87.2089
rhand -33.4455 -19.9835
rfingers 7.12502
rthumb -6.64432 -49.8593
lclavicle -9.61574e-014 -1.09332e-015
lhumerus -23.4553 -20.1047 96.2535
lradius 100.775
lwrist 65.9294
lhand -41.9802 -8.80213
lfingers 7.12502
lthumb -14.8761 20.6438
rfemur -16.2657 8.62028 27.7921
rtibia 38.8444
rfoot -18.4918 -0.989137
rtoes 9.01841
lfemur -1.69277 5.45213 -21.1809
ltibia 25.9858
lfoot -37.6334 30.6061
ltoes 12.1986
1139
root 9.10055 16.2415 -2.83073 5.62184 -48.8909 -10.0994
lowerback -0.900364 -3.6451 2.23626
upperback 0.647722 -4.95021 2.83726
thorax 1.23098 -2.47927 1.56174
lowerneck -0.488647 -5.78204 -0.69556
upperneck 16.999 -6.93056 -8.38172
head 4.89654 -4.07093 -2.78512
rclavicle -5.23922e-014 4.57205e-015
rhumerus -28.2659 9.30844 -86.272
rradius 109.629
rwrist -87.2732
rhand -33.489 -19.9644
rfingers 7.12502
rthumb -6.68624 -49.8388
lclavicle -5.23922e-014 4.57205e-015
lhumerus -23.5731 -20.3346 96.327
lradius 100.575
lwrist 66.0186
lhand -41.9521 -8.69095
lfingers 7.12502
lthumb -14.8491 20.757
rfemur -16.2941 8.63647 27.7838
rtibia 38.845
rfoot -18.4741 -0.986478
rtoes 9.01766
lfemur -1.71916 5.47737 -21.1857
ltibia 25.9871
lfoot -37.6253 30.6082
ltoes 12.1995
1140
root 9.10347 16.2419 -2.83168 5.63811 -48.9161 -10.1007
lowerback -0.905257 -3.66887 2.21709
upperback 0.661526 -4.98253 2.83989
thorax 1.25015 -2.49553 1.57345
lowerneck -0.546268 -5.7908 -0.736009
upperneck 17.1669 -6.94064 -8.33233
head 4.96162 -4.08164 -2.77172
rclavicle -1.08855e-013 2.66371e-014
rhumerus -28.485 9.24898 -86.2945
rradius 109.523
rwrist -87.3159
rhand -33.5233 -19.9923
rfingers 7.12502
rthumb -6.71944 -49.8657
lclavicle -1.08855e-013 2.66371e-014
lhumerus -23.686 -20.5601 96.4035
lradius 100.374
lwrist 66.1061
lhand -41.945 -8.61251
lfingers 7.12502
lthumb -14.8422 20.8359
rfemur -16.3243 8.65148 27.7738
rtibia 38.8476
rfoot -18.455 -0.980986
rtoes 9.01254
lfemur -1.74488 5.50565 -21.1919
ltibia 25.9865
lfoot -37.6145 30.6107
ltoes 12.197
1141
root 9.1065 16.2422 -2.83262 5.65246 -48.9433 -10.0991
lowerback -0.908876 -3.69251 2.19701
upperback 0.674771 -5.01455 2.84112
thorax 1.26801 -2.51164 1.58432
lowerneck -0.604089 -5.80023 -0.774342
upperneck 17.3358 -6.95178 -8.28387
head 5.02695 -4.0928 -2.75905
rclavicle 3.89338e-015 -2.44505e-014
rhumerus -28.7069 9.18894 -86.3176
rradius 109.42
rwrist -87.3439
rhand -33.5541 -20.0608
rfingers 7.12502
rthumb -6.74912 -49.9332
lclavicle 3.89338e-015 -2.44505e-014
lhumerus -23.7937 -20.7808 96.4831
lradius 100.171
lwrist 66.19
lhand -41.962 -8.5835
lfingers 7.12502
lthumb -14.8585 20.8637
rfemur -16.3562 8.66536 27.7611
rtibia 38.8524
rfoot -18.4351 -0.972078
rtoes 9.00688
lfemur -1.76962 5.53281 -21.2012
ltibia 25.9839
lfoot -37.6054 30.6149
ltoes 12.1973
1142
root 9.10963 16.2424 -2.83358 5.66357 -48.9723 -10.0934
lowerback -0.910693 -3.71603 2.17529
upperback 0.687588 -5.04624 2.84056
thorax 1.28442 -2.52759 1.59442
lowerneck -0.661987 -5.81037 -0.810859
upperneck 17.5048 -6.96406 -8.23619
head 5.09227 -4.10441 -2.74699
rclavicle 9.87867e-015 3.37934e-015
rhumerus -28.9315 9.12862 -86.3413
rradius 109.319
rwrist -87.3673
rhand -33.5884 -20.1467
rfingers 7.12502
rthumb -6.78225 -50.018
lclavicle 9.87867e-015 3.37934e-015
lhumerus -23.8968 -20.996 96.5654
lradius 99.9656
lwrist 66.2677
lhand -42.0087 -8.62805
lfingers 7.12502
lthumb -14.9036 20.8158
rfemur -16.3894 8.67888 27.7451
rtibia 38.8597
rfoot -18.4154 -0.96065
rtoes 9.00131
lfemur -1.7931 5.55684 -21.2149
ltibia 25.9791
lfoot -37.5993 30.6224
ltoes 12.2017
